<?xml version="1.0" standalone="no"?>
<!DOCTYPE svg PUBLIC "-//W3C//DTD SVG 1.1//EN" "http://www.w3.org/Graphics/SVG/1.1/DTD/svg11.dtd" >
<svg xmlns="http://www.w3.org/2000/svg">
<metadata>Generated by IcoMoon</metadata>
<defs>
<font id="icomoon" horiz-adv-x="1024">
<font-face units-per-em="1024" ascent="960" descent="-64" />
<missing-glyph horiz-adv-x="1024" />
<glyph unicode="&#x20;" horiz-adv-x="512" d="" />
<glyph unicode="&#xe900;" glyph-name="glass-cannon" horiz-adv-x="1087" d="M304.829 832.394c-6.302-4.726-11.028-48.837-11.028-94.523 0-78.769 7.877-96.098 94.523-222.129 53.563-75.618 110.277-155.963 129.182-179.594 33.083-40.96 33.083-44.111 6.302-74.043-33.083-36.234-9.452-58.289 37.809-33.083 44.111 23.631 72.468 0 97.674-80.345 23.631-80.345 47.262-100.825 89.797-77.194 44.111 22.055 40.96 66.166-6.302 107.126-56.714 50.412-67.742 111.852-25.206 143.36 40.96 29.932 28.357 51.988-22.055 39.385-29.932-7.877-39.385 1.575-61.44 59.865-15.754 37.809-56.714 130.757-92.948 206.375-58.289 127.606-70.892 141.785-138.634 178.018-85.071 42.535-83.495 42.535-97.674 26.782z" />
<glyph unicode="&#xe901;" glyph-name="inequity" horiz-adv-x="902" d="M398.272 780.42c-24.454-13.755-94.758-27.51-155.893-32.096-106.985-6.113-110.042-7.642-120.74-51.964-15.284-70.304 7.642-209.385 47.379-299.558 39.737-85.588 165.063-229.254 247.594-279.69l50.436-32.096 76.418 56.549c94.758 70.304 172.704 163.534 217.027 261.349 25.982 58.078 33.624 103.928 33.624 204.8l1.528 129.91-106.985 9.17c-58.078 4.585-132.967 19.869-166.591 33.624-70.304 30.567-65.719 30.567-123.797 0z" />
<glyph unicode="&#xe902;" glyph-name="suture" horiz-adv-x="944" d="M392 781.6c-40-17.6-112-30.4-161.6-30.4-102.4-1.6-110.4-9.6-110.4-121.6 0-102.4 51.2-251.2 118.4-342.4 64-86.4 208-209.6 244.8-209.6 11.2 0 78.4 56 147.2 124.8 152 150.4 193.6 241.6 193.6 425.6v118.4l-115.2 6.4c-67.2 3.2-140.8 17.6-171.2 33.6-64 32-54.4 32-145.6-4.8zM611.2 464.8c65.6-155.2-118.4-283.2-236.8-164.8-68.8 70.4-62.4 134.4 28.8 281.6l73.6 120 56-91.2c30.4-51.2 65.6-116.8 78.4-145.6zM408 522.4c-52.8-94.4-54.4-104-32-163.2 20.8-57.6 48-51.2 48 11.2 0 27.2 9.6 92.8 22.4 144 11.2 49.6 19.2 91.2 16 91.2s-27.2-38.4-54.4-83.2z" />
<glyph unicode="&#xe903;" glyph-name="stupefy" horiz-adv-x="963" d="M333.249 776.597c-41.266-19.869-90.173-51.964-105.457-70.304l-29.039-32.096 70.304 30.567c175.761 77.946 330.125 44.322 391.26-82.531 38.209-77.946 39.737-103.928 9.17-162.006-38.209-74.89-132.967-102.4-181.875-51.964-22.925 21.397-24.454 19.869-24.454-15.284 0-93.23 122.269-131.439 221.612-70.304 110.042 67.248 131.439 253.707 42.794 363.749-64.191 77.946-126.854 111.57-230.782 119.212-70.304 6.113-102.4 0-163.534-29.039zM301.154 675.725c-206.328-125.325-180.346-434.054 45.851-544.096 97.815-47.379 129.91-42.794 50.436 6.113-198.687 122.269-209.385 388.203-19.869 460.036 81.003 30.567 177.29-30.567 177.29-111.57 0-44.322 0-45.851 30.567-18.34 35.152 32.096 41.266 125.325 12.227 163.534-64.191 77.946-206.328 99.343-296.501 44.322zM829.966 536.644c-1.528-194.101-168.119-343.881-325.54-291.916-68.776 22.925-100.872 61.134-113.099 129.91-7.642 47.379-1.528 59.606 39.737 99.343 38.209 35.152 42.794 45.851 22.925 53.493-79.475 30.567-158.949-44.322-158.949-149.779 0-169.648 195.63-284.275 363.749-213.97 71.833 29.039 152.836 105.457 180.346 172.704 24.454 58.078 29.039 210.913 6.113 246.066-10.699 16.812-15.284 4.585-15.284-45.851z" />
<glyph unicode="&#xe904;" glyph-name="pacify" horiz-adv-x="1100" d="M351.313 763.606c-42.794-38.209-70.304-105.457-44.322-105.457 7.642 0 19.869 7.642 24.454 15.284 21.397 33.624 131.439 76.418 200.215 76.418 59.606 0 77.946-7.642 122.269-51.964 48.907-48.907 51.964-58.078 51.964-157.421 0-91.701-4.585-111.57-35.152-139.081-45.851-42.794-79.475-42.794-125.325 4.585l-38.209 36.681v-41.266c0-47.379 22.925-91.701 39.737-76.418 6.113 6.113 24.454 1.528 42.794-10.699 68.776-48.907 162.006-7.642 162.006 70.304 0 15.284 16.812 30.567 38.209 35.152 42.794 10.699 51.964 55.021 16.812 84.060-15.284 12.227-18.34 36.681-13.755 77.946 16.812 126.854-56.549 201.743-197.158 198.687-44.322-1.528-108.513 3.057-143.666 9.17-51.964 7.642-68.776 3.057-100.872-25.982zM394.107 690.245c-13.755-13.755-24.454-33.624-24.454-42.794 0-7.642-22.925-21.397-48.907-29.039-114.627-33.624-149.779-178.818-68.776-285.803 19.869-27.51 41.266-68.776 47.379-91.701 21.397-88.645 114.627-142.137 175.761-103.928 16.812 10.699 7.642 21.397-38.209 44.322-32.096 16.812-79.475 51.964-105.457 79.475-39.737 41.266-45.851 59.606-45.851 129.91 0 96.287 16.812 119.212 136.024 183.403 81.003 42.794 87.116 44.322 126.854 22.925 47.379-25.982 64.191-94.758 33.624-131.439-21.397-25.982-7.642-27.51 36.681-4.585 44.322 24.454 58.078 47.379 39.737 68.776-7.642 10.699-10.699 35.152-6.113 55.021 6.113 24.454 0 48.907-19.869 73.361-29.039 35.152-35.152 36.681-93.23 21.397-35.152-9.17-62.663-12.227-62.663-4.585s-12.227 19.869-29.039 27.51c-21.397 12.227-33.624 9.17-53.493-12.227zM843.444 480.86c0-119.212-35.152-186.46-116.155-221.612-68.776-30.567-145.194-25.982-175.761 10.699-9.17 12.227-25.982 21.397-35.152 21.397-41.266 0-88.645 71.833-82.531 123.797 3.057 44.322 12.227 55.021 56.549 68.776l53.493 16.812-41.266 25.982c-42.794 29.039-71.833 22.925-71.833-15.284 0-12.227-12.227-21.397-27.51-21.397-33.624 0-79.475-45.851-79.475-79.475 0-12.227 15.284-42.794 33.624-65.719 18.34-24.454 33.624-61.134 35.152-82.531 0-32.096 9.17-41.266 45.851-47.379 25.982-4.585 65.719-21.397 90.173-38.209 96.287-64.191 218.555-24.454 268.991 90.173 16.812 35.152 45.851 79.475 67.248 99.343 50.436 47.379 64.191 114.627 33.624 162.006-39.737 59.606-55.021 45.851-55.021-47.379z" />
<glyph unicode="&#xe905;" glyph-name="prosperity" horiz-adv-x="1152" d="M356 819.2c0-12.8-12.8-30.4-28.8-38.4-25.6-12.8-25.6-16 6.4-48l33.6-32 30.4 32c30.4 33.6 30.4 33.6-4.8 72-27.2 27.2-36.8 32-36.8 14.4zM780 782.4l-32-32 33.6-33.6 33.6-32 30.4 32c30.4 33.6 30.4 33.6-1.6 65.6l-32 33.6-32-33.6zM514.4 723.2c-62.4-27.2-84.8-51.2-147.2-156.8-41.6-68.8-75.2-134.4-75.2-144 0-11.2 16-41.6 35.2-67.2 30.4-43.2 32-57.6 19.2-126.4-19.2-88-19.2-88 161.6-134.4 137.6-35.2 153.6-32 283.2 54.4 184 123.2 180.8 118.4 136 259.2-36.8 108.8-46.4 123.2-121.6 174.4-44.8 30.4-81.6 65.6-81.6 80 0 28.8-83.2 97.6-115.2 94.4-11.2-1.6-54.4-16-94.4-33.6zM628 680c0-17.6-6.4-36.8-16-41.6-8-4.8-16-30.4-16-56 0-36.8-11.2-52.8-48-72-25.6-12.8-56-24-67.2-24s-49.6-14.4-83.2-33.6c-57.6-30.4-60.8-30.4-51.2-3.2 33.6 86.4 132.8 214.4 185.6 235.2 76.8 32 96 30.4 96-4.8zM660 464c0-11.2-14.4-33.6-32-49.6s-32-49.6-32-73.6c0-35.2-11.2-51.2-49.6-70.4-25.6-14.4-62.4-40-80-57.6-16-16-41.6-30.4-56-30.4-22.4 0-24 11.2-17.6 59.2 6.4 32 22.4 65.6 38.4 75.2 16 8 68.8 52.8 116.8 99.2 83.2 80 112 92.8 112 48zM245.6 648c-11.2-19.2-30.4-33.6-46.4-35.2-22.4 0-20.8-3.2 6.4-17.6 19.2-8 41.6-32 49.6-51.2l16-33.6 11.2 33.6c4.8 19.2 25.6 41.6 46.4 51.2 27.2 12.8 28.8 17.6 8 17.6-14.4 1.6-36.8 16-51.2 35.2l-22.4 33.6-17.6-33.6z" />
<glyph unicode="&#xe906;" glyph-name="intelligence" horiz-adv-x="1142" d="M745.583 762.754c-13.43-3.357-53.718-10.072-87.292-16.787l-63.79-10.072v-275.305c0-300.485-5.036-287.056 99.043-266.911 48.682 10.072 52.039 15.108 52.039 90.649s1.679 80.577 52.039 90.649c67.148 13.43 157.797 107.436 172.905 177.941 13.43 73.862-28.538 159.475-99.043 191.37-53.718 26.859-73.862 28.538-125.902 18.466zM809.373 599.921c26.859-26.859 25.18-38.61-6.715-70.505-40.289-41.967-57.075-31.895-57.075 31.895 0 60.433 25.18 77.22 63.79 38.61zM471.957 725.823c-36.931-5.036-55.397-23.502-73.862-68.826l-26.859-62.111-21.823 52.039c-21.823 50.361-25.18 52.039-102.4 43.646-43.646-3.357-83.934-10.072-87.292-13.43-1.679-1.679 26.859-62.111 65.469-130.938l68.826-127.58-68.826-144.367c-36.931-80.577-65.469-147.725-63.79-149.403 3.357-1.679 40.289 0 83.934 5.036 72.184 6.715 80.577 11.751 102.4 67.148l23.502 60.433 28.538-52.039c25.18-48.682 31.895-52.039 88.97-43.646 35.252 5.036 70.505 15.108 77.22 21.823 8.393 6.715-13.43 67.148-47.003 134.295l-62.111 122.544 53.718 127.58c30.216 70.505 58.754 137.652 62.111 149.403 8.393 20.144-8.393 21.823-100.721 8.393z" />
<glyph unicode="&#xe907;" glyph-name="enhanced-fury" horiz-adv-x="1209" d="M580.16 770.307c-62.111-47.003-85.613-50.361-157.797-26.859-82.256 30.216-77.22 31.895-77.22-25.18 0-75.541-15.108-100.721-87.292-137.652l-65.469-33.574 36.931-52.039c40.289-55.397 45.325-124.223 15.108-181.298-23.502-43.646-26.859-38.61 63.79-65.469 58.754-16.787 77.22-31.895 100.721-82.256 15.108-33.574 28.538-65.469 31.895-68.826 1.679-3.357 26.859 11.751 53.718 31.895 58.754 40.289 127.58 48.682 182.977 18.466l36.931-20.144v354.203h-104.079l57.075 80.577 57.075 78.898-33.574 52.039c-20.144 30.216-43.646 65.469-52.039 82.256-15.108 26.859-20.144 25.18-58.754-5.036zM486.154 644.406c20.144-21.823 57.075-85.613 78.898-142.689s50.361-104.079 60.433-104.079c11.751 0 21.823-6.715 21.823-16.787 0-8.393-6.715-16.787-16.787-16.787-20.144 0-3.357-48.682 28.538-87.292 25.18-28.538 16.787-63.79-11.751-63.79-10.072 0-26.859 25.18-40.289 57.075-20.144 48.682-30.216 57.075-63.79 48.682-30.216-8.393-35.252-5.036-18.466 11.751 15.108 15.108 1.679 45.325-55.397 129.259-109.115 159.475-97.364 298.807 16.787 184.656zM789.996 646.084c-85.613-130.938-85.613-130.938-43.646-130.938 33.574 0 35.252-8.393 35.252-152.761v-151.082l176.262 10.072 5.036 147.725c3.357 117.508 10.072 146.046 30.216 146.046 15.108 0 23.502 6.715 20.144 13.43-11.751 30.216-139.331 221.587-147.725 221.587-5.036 0-38.61-47.003-75.541-104.079z" />
<glyph unicode="&#xe908;" glyph-name="cruelty" horiz-adv-x="1105" d="M304.627 812.090c11.378-37.384 42.26-172.292 43.886-186.921 0-6.502-26.006-16.254-58.514-22.756l-58.514-9.752 87.771-94.273-86.146-52.013-84.521-53.638 63.39-27.632c34.133-16.254 73.143-29.257 84.521-29.257 27.632-1.625 24.381-42.26-13.003-162.54-17.879-56.889-30.883-105.651-27.632-108.902s60.14 30.883 128.406 74.768l125.156 78.019 17.879-50.387 17.879-52.013 24.381 45.511c13.003 24.381 27.632 43.886 32.508 43.886 3.251 0 73.143-32.508 152.787-73.143l144.66-73.143-42.26 110.527c-55.263 144.66-55.263 154.413 1.625 165.79l47.137 8.127-84.521 97.524 134.908 138.159h-94.273c-74.768 0-92.648 4.876-86.146 22.756 4.876 13.003 14.629 50.387 21.13 84.521l11.378 60.14-78.019-42.26c-42.26-24.381-79.644-43.886-81.27-43.886-3.251 0-21.13 40.635-40.635 89.397s-39.010 89.397-42.26 89.397c-4.876 0-29.257-26.006-56.889-56.889l-50.387-56.889-81.27 60.14c-65.016 47.137-79.644 52.013-73.143 27.632zM642.709 573.157c32.508 9.752 34.133 4.876 24.381-35.759-11.378-43.886-11.378-43.886 50.387-34.133l61.765 9.752-39.010-32.508c-29.257-26.006-34.133-39.010-21.13-52.013 29.257-29.257 22.756-45.511-13.003-45.511-27.632 0-30.883-4.876-16.254-30.883 8.127-17.879 22.756-50.387 32.508-74.768l16.254-42.26-71.517 48.762c-53.638 37.384-74.768 43.886-89.397 29.257-16.254-14.629-22.756-13.003-35.759 9.752-16.254 26.006-21.13 24.381-81.27-22.756-69.892-55.263-74.768-52.013-39.010 19.505 29.257 55.263 21.13 79.644-29.257 79.644-34.133 1.625-34.133 3.251 8.127 37.384s43.886 39.010 17.879 65.016c-26.006 26.006-26.006 27.632 8.127 27.632 40.635 0 40.635 0 19.505 55.263-14.629 40.635 3.251 60.14 24.381 26.006 17.879-29.257 40.635-17.879 58.514 29.257l17.879 43.886 30.883-60.14c24.381-47.137 37.384-56.889 65.016-50.387z" />
<glyph unicode="&#xe909;" glyph-name="precision" horiz-adv-x="1041" d="M478.533 787.095c0-28.538-15.108-43.646-57.075-58.754-73.862-26.859-154.439-110.793-179.62-182.977-13.43-41.967-26.859-55.397-58.754-55.397s-40.289-8.393-40.289-41.967c0-33.574 8.393-41.967 40.289-41.967s48.682-16.787 77.22-75.541c38.61-80.577 99.043-132.616 172.905-151.082 36.931-10.072 45.325-21.823 45.325-60.433 0-40.289 6.715-48.682 41.967-48.682s41.967 8.393 41.967 47.003c0 38.61 10.072 50.361 57.075 67.148 67.148 25.18 156.118 117.508 171.226 179.62 8.393 31.895 21.823 41.967 58.754 41.967 40.289 0 48.682 6.715 48.682 41.967 0 33.574-8.393 41.967-41.967 41.967-31.895 0-47.003 13.43-67.148 63.79-35.252 82.256-100.721 149.403-171.226 172.905-41.967 13.43-55.397 26.859-55.397 58.754s-8.393 40.289-41.967 40.289c-31.895 0-41.967-8.393-41.967-38.61zM478.533 615.869c0-33.574 8.393-41.967 41.967-41.967s41.967 8.393 41.967 41.967c0 48.682 18.466 52.039 77.22 15.108 36.931-25.18 90.649-102.4 90.649-132.616 0-5.036-18.466-8.393-41.967-8.393-33.574 0-41.967-8.393-41.967-41.967s8.393-41.967 41.967-41.967c41.967 0 41.967-1.679 16.787-48.682-26.859-52.039-85.613-102.4-120.866-102.4-10.072 0-21.823 16.787-25.18 38.61-3.357 23.502-18.466 38.61-41.967 41.967-31.895 5.036-38.61-1.679-38.61-36.931 0-60.433-41.967-55.397-110.793 13.43-67.148 67.148-72.184 94.007-15.108 94.007 33.574 0 41.967 8.393 41.967 41.967s-8.393 41.967-41.967 41.967c-58.754 0-53.718 41.967 15.108 110.793s110.793 73.862 110.793 15.108zM500.356 495.003c-11.751-5.036-21.823-26.859-21.823-50.361 0-33.574 6.715-40.289 38.61-35.252 21.823 3.357 38.61 18.466 41.967 40.289 5.036 36.931-21.823 57.075-58.754 45.325z" />
<glyph unicode="&#xe90a;" glyph-name="greater-strength" horiz-adv-x="1054" d="M565.586 767.073c-57.878-43.038-97.948-46.006-170.667-16.325-57.878 25.229-66.783 19.293-66.783-43.038 0-60.846-46.006-118.725-111.304-140.986-28.197-8.904-51.942-20.777-51.942-25.229s16.325-26.713 37.101-51.942c43.038-50.458 48.974-124.661 14.841-189.959-22.261-43.038-22.261-44.522 14.841-44.522 20.777 0 59.362-8.904 86.075-19.293 41.554-17.809 56.394-35.617 109.82-140.986 1.484-2.968 31.165 11.872 68.267 32.649 72.719 43.038 118.725 47.49 175.119 17.809 38.586-19.293 40.070-19.293 47.49 38.586 8.904 69.751 35.617 102.4 112.788 138.017l57.878 25.229-46.006 65.299c-41.554 60.846-44.522 69.751-29.681 121.693 7.42 29.681 20.777 66.783 26.713 81.623 8.904 20.777 2.968 25.229-34.133 25.229-74.203 0-118.725 29.681-151.374 97.948-16.325 35.617-31.165 65.299-34.133 65.299-1.484-1.484-26.713-17.809-54.91-37.101zM445.377 664.673c29.681-16.325 57.878-57.878 99.432-148.406 35.617-78.655 65.299-124.661 75.687-120.209 10.388 2.968 22.261 0 26.713-8.904 5.936-7.42-1.484-17.809-14.841-22.261-29.681-11.872-16.325-60.846 28.197-97.948 26.713-22.261 28.197-28.197 8.904-41.554-34.133-22.261-44.522-17.809-60.846 25.229-23.745 63.814-43.038 81.623-68.267 62.33-25.229-22.261-44.522-5.936-22.261 19.293 10.388 14.841-5.936 47.49-65.299 129.113-75.687 103.884-92.012 146.922-71.235 200.348 10.388 28.197 11.872 29.681 63.814 2.968z" />
<glyph unicode="&#xe90b;" glyph-name="assassin" horiz-adv-x="1069" d="M451.675 780.8c-21.082-10.541-45.176-37.647-54.212-57.224-25.6-57.224-40.659-200.282-21.082-212.329 9.035-6.024 16.565-28.612 16.565-51.2 0-34.635-1.506-36.141-19.576-12.047-16.565 22.588-25.6 22.588-63.247 9.035-25.6-10.541-64.753-19.576-88.847-24.094-24.094-3.012-46.682-9.035-51.2-12.047-19.576-21.082 37.647-152.094 91.859-215.341 78.306-88.847 158.118-124.988 274.071-124.988 161.129 0 284.612 81.318 346.353 230.4 36.141 85.835 30.118 115.953-21.082 115.953-24.094 0-69.271 10.541-100.894 24.094-52.706 22.588-58.729 22.588-76.8-3.012-24.094-31.624-25.6-9.035-4.518 48.188 9.035 24.094 12.047 78.306 6.024 132.518-9.035 70.776-19.576 100.894-52.706 132.518-46.682 48.188-115.953 54.212-180.706 19.576zM489.322 538.353c27.106-10.541 18.071-36.141-12.047-36.141-10.541 0-31.624 10.541-48.188 22.588-28.612 21.082-28.612 21.082 4.518 22.588 18.071 0 42.165-4.518 55.718-9.035zM648.945 533.835c0-19.576-55.718-36.141-75.294-24.094-9.035 6.024-12.047 16.565-7.529 24.094 12.047 18.071 82.824 18.071 82.824 0z" />
<glyph unicode="&#xe90c;" glyph-name="block-proficiency" horiz-adv-x="1008" d="M433.6 797.6c-43.2-19.2-110.4-33.6-168-33.6-52.8-1.6-100.8-8-107.2-17.6-20.8-28.8-14.4-176 12.8-265.6 36.8-120 121.6-243.2 235.2-334.4l96-78.4 57.6 46.4c89.6 70.4 203.2 196.8 238.4 265.6 43.2 86.4 72 236.8 60.8 316.8l-11.2 65.6-99.2 1.6c-62.4 0-124.8 12.8-171.2 32-72 32-72 32-144 1.6zM497.6 658.4c30.4 38.4 32 38.4 32 4.8 0-19.2 4.8-44.8 9.6-59.2 8-22.4 16-20.8 57.6 9.6 48 33.6 48 33.6 30.4 0-30.4-56-22.4-70.4 35.2-59.2l51.2 9.6-43.2-36.8c-41.6-35.2-43.2-40-17.6-65.6s25.6-27.2 0-27.2c-33.6 0-33.6-4.8-1.6-65.6 12.8-27.2 22.4-52.8 19.2-56s-33.6 12.8-65.6 33.6c-68.8 48-91.2 49.6-92.8 12.8-1.6-27.2-3.2-27.2-9.6-1.6-9.6 38.4-20.8 36.8-84.8-11.2-30.4-22.4-56-40-57.6-40-3.2 0 6.4 25.6 19.2 56 32 76.8 28.8 84.8-28.8 91.2l-52.8 4.8 54.4 30.4 54.4 28.8-36.8 28.8-38.4 28.8 46.4-8c41.6-8 43.2-6.4 33.6 32-4.8 22.4-14.4 52.8-20.8 70.4-8 22.4-1.6 20.8 33.6-11.2l43.2-40 30.4 40z" />
<glyph unicode="&#xe90d;" glyph-name="coagulate" horiz-adv-x="944" d="M392 781.6c-40-17.6-112-30.4-161.6-30.4-102.4-1.6-110.4-9.6-110.4-121.6 0-102.4 51.2-251.2 118.4-342.4 64-86.4 208-209.6 244.8-209.6 11.2 0 78.4 56 147.2 124.8 152 150.4 193.6 241.6 193.6 425.6v118.4l-115.2 6.4c-67.2 3.2-140.8 17.6-171.2 33.6-64 32-54.4 32-145.6-4.8zM611.2 464.8c65.6-155.2-118.4-283.2-236.8-164.8-68.8 70.4-62.4 134.4 28.8 281.6l73.6 120 56-91.2c30.4-51.2 65.6-116.8 78.4-145.6zM408 522.4c-52.8-94.4-54.4-104-32-163.2 20.8-57.6 48-51.2 48 11.2 0 27.2 9.6 92.8 22.4 144 11.2 49.6 19.2 91.2 16 91.2s-27.2-38.4-54.4-83.2z" />
<glyph unicode="&#xe90e;" glyph-name="collar-tech" horiz-adv-x="990" d="M422.816 752.683c-94.007-65.469-3.357-231.659 105.757-191.37 21.823 8.393 47.003 5.036 67.148-10.072 16.787-13.43 48.682-23.502 70.505-23.502 30.216 0 38.61-10.072 38.61-41.967 0-38.61-6.715-41.967-72.184-41.967-60.433 0-94.007 15.108-191.37 83.934l-117.508 83.934-63.79-102.4c-33.574-55.397-58.754-104.079-57.075-107.436 3.357-3.357 53.718-40.289 112.472-82.256 75.541-57.075 104.079-87.292 104.079-115.83 0-45.325 63.79-112.472 107.436-112.472 48.682 0 88.97 30.216 107.436 78.898 30.216 90.649-36.931 169.548-130.938 149.403-36.931-6.715-65.469 5.036-124.223 50.361-67.148 50.361-73.862 62.111-57.075 88.97 18.466 30.216 25.18 28.538 122.544-33.574 95.685-60.433 114.151-65.469 224.944-65.469h119.187v235.016h-63.79c-72.184 0-120.866 38.61-120.866 95.685 0 77.22-107.436 114.151-181.298 62.111zM536.966 668.749c0-33.574-50.361-50.361-67.148-21.823-18.466 28.538 11.751 67.148 43.646 53.718 13.43-5.036 23.502-20.144 23.502-31.895zM570.54 217.181c0-35.252-50.361-52.039-67.148-23.502-18.466 28.538-5.036 48.682 35.252 48.682 16.787 0 31.895-11.751 31.895-25.18z" />
<glyph unicode="&#xe90f;" glyph-name="cosmic-awareness" horiz-adv-x="1226" d="M524.292 746.159c-91.993-42.711-162.633-121.564-190.559-215.2-13.143-45.996-37.784-96.924-55.855-113.35s-39.426-54.212-50.924-85.423c-34.499-103.494 45.996-167.561 182.346-146.205 220.13 34.499 481.327 197.132 597.963 371.263 14.786 21.356 26.283 64.067 26.283 93.638 0 70.637-42.711 93.638-180.704 98.566-59.14 1.643-142.92 6.57-188.916 11.501-57.497 8.213-100.209 3.285-139.635-14.786zM727.994 682.092c29.568-11.501 68.995-41.069 87.065-65.71 19.713-22.998 37.784-42.711 42.711-42.711 19.713 0 24.641 73.925 6.57 96.924-16.428 19.713-14.786 21.356 18.071 3.285 50.924-27.926 36.141-72.281-60.782-170.846-96.924-101.851-305.553-208.63-404.119-208.63-77.21 0-113.35 27.926-95.281 73.925 9.856 26.283 11.501 26.283 24.641-8.213 11.501-32.856 21.356-36.141 87.065-27.926 73.925 11.501 252.984 85.423 310.481 129.777 29.568 22.998 29.568 26.283 1.643 67.352-31.213 49.282-116.637 106.779-185.631 126.492l-44.354 13.143 41.069 16.428c57.497 24.641 106.779 22.998 170.846-3.285zM861.056 360.11c-73.925-59.14-180.704-118.279-298.981-167.561l-45.996-18.071 65.71-16.428c139.635-31.213 305.553 65.71 348.265 206.987 9.856 32.856 16.428 60.782 16.428 60.782-1.643 0-39.426-29.568-85.423-65.71z" />
<glyph unicode="&#xe910;" glyph-name="courage" horiz-adv-x="1087" d="M304.829 832.394c-6.302-4.726-11.028-48.837-11.028-94.523 0-78.769 7.877-96.098 94.523-222.129 53.563-75.618 110.277-155.963 129.182-179.594 33.083-40.96 33.083-44.111 6.302-74.043-33.083-36.234-9.452-58.289 37.809-33.083 44.111 23.631 72.468 0 97.674-80.345 23.631-80.345 47.262-100.825 89.797-77.194 44.111 22.055 40.96 66.166-6.302 107.126-56.714 50.412-67.742 111.852-25.206 143.36 40.96 29.932 28.357 51.988-22.055 39.385-29.932-7.877-39.385 1.575-61.44 59.865-15.754 37.809-56.714 130.757-92.948 206.375-58.289 127.606-70.892 141.785-138.634 178.018-85.071 42.535-83.495 42.535-97.674 26.782z" />
<glyph unicode="&#xe911;" glyph-name="deep-wounds" horiz-adv-x="948" d="M185.904 716.991c-73.361-126.854-77.946-162.006-25.982-213.97 50.436-51.964 132.967-51.964 183.403 0 53.493 51.964 47.379 90.173-27.51 215.499l-64.191 106.985-65.719-108.513zM218 614.591c-4.585-53.493-12.227-99.343-15.284-103.928-10.699-12.227-35.152 36.681-35.152 71.833 0 25.982 44.322 126.854 56.549 126.854 0 0-1.528-42.794-6.113-94.758zM688.734 718.52c-55.021-94.758-58.078-131.439-16.812-169.648 58.078-51.964 168.119-15.284 168.119 58.078 0 25.982-85.588 194.101-99.343 194.101-3.057 0-25.982-36.681-51.964-82.531zM708.603 628.347c-10.699-73.361-36.681-85.588-36.681-16.812 0 33.624 30.567 102.4 41.266 91.701 3.057-1.528 0-36.681-4.585-74.89zM519.086 637.517c0-7.642-32.096-64.191-70.304-125.325-90.173-139.081-113.099-206.328-96.287-267.463 35.152-123.797 191.045-174.233 287.331-91.701 53.493 44.322 82.531 128.382 62.663 181.875-19.869 50.436-183.403 320.955-183.403 302.615zM494.632 438.83c-12.227-48.907-21.397-120.74-21.397-160.478 0-79.475-24.454-108.513-56.549-65.719-35.152 50.436-22.925 126.854 35.152 223.14 29.039 50.436 56.549 90.173 58.078 90.173 3.057 0-4.585-39.737-15.284-87.116z" />
<glyph unicode="&#xe912;" glyph-name="despair" horiz-adv-x="1074" d="M262.831 808.878c-79.277-28.077-120.568-92.49-130.477-199.845-6.606-75.974 0-109.006 37.987-186.632 47.897-97.445 239.484-303.897 327.019-350.142 39.639-21.471 47.897-18.168 150.297 62.761 120.568 95.794 244.439 251.045 274.168 341.884 26.426 79.277 13.213 213.058-28.077 267.561-67.716 90.839-222.968 100.748-320.413 21.471-37.987-29.729-39.639-29.729-97.445 6.606-75.974 49.548-143.69 61.11-213.058 36.335zM459.373 640.414l72.671-74.323 79.277 77.626c77.626 75.974 79.277 75.974 112.31 46.245 46.245-41.29 42.942-54.503-34.684-133.781l-69.368-71.019 61.11-69.368c33.032-37.987 59.458-75.974 59.458-80.929 0-6.606-14.865-24.774-31.381-39.639-31.381-28.077-34.684-26.426-104.052 36.335l-71.019 67.716-140.387-137.084-82.581 82.581 72.671 71.019 71.019 71.019-80.929 74.323-79.277 75.974 34.684 39.639c21.471 19.819 41.29 37.987 47.897 37.987 4.955 0 42.942-33.032 82.581-74.323z" />
<glyph unicode="&#xe913;" glyph-name="detect-cosmic" horiz-adv-x="1258" d="M393.66 696.814c-32.337-14.372-70.063-57.488-88.028-93.418s-39.523-79.046-46.709-93.418c-8.982-14.372-28.744-50.302-43.116-77.249-16.168-26.947-23.354-66.47-17.965-84.435 50.302-161.684 583.86 102.4 583.86 287.439 0 61.081-10.779 64.674-197.614 79.046-104.196 8.982-147.312 5.389-190.428-17.965zM607.443 635.733c55.691-43.116 61.081-44.912 71.86-3.593 7.186 23.354 8.982 23.354 10.779-7.186 1.796-48.505-118.568-159.888-226.358-208.393-84.435-37.726-186.835-37.726-199.411 0-5.389 19.761 0 19.761 26.947 1.796 28.744-16.168 53.895-14.372 127.551 8.982 129.347 43.116 176.056 82.639 150.905 131.144-10.779 19.761-48.505 50.302-84.435 66.47-34.133 16.168-62.877 34.133-62.877 37.726 0 26.947 145.516 3.593 185.039-26.947zM717.029 409.376c-152.702-237.137-159.888-222.765 104.196-222.765 123.958 0 228.154 5.389 235.34 10.779 8.982 8.982-165.277 294.625-213.782 346.723-17.965 19.761-39.523-3.593-125.754-134.737zM853.562 407.579c0-88.028-26.947-132.94-41.319-73.656-21.558 75.453-14.372 140.126 14.372 140.126 19.761 0 26.947-19.761 26.947-66.47zM853.562 238.709c0-8.982-12.575-16.168-26.947-16.168-26.947 0-35.93 21.558-16.168 41.319 14.372 14.372 43.116-1.796 43.116-25.151zM654.152 427.341c-14.372-17.965-71.86-52.098-127.551-79.046-109.586-52.098-114.975-71.86-19.761-71.86 61.081 0 104.196 30.54 159.888 116.772 34.133 52.098 25.151 79.046-12.575 34.133z" />
<glyph unicode="&#xe914;" glyph-name="detect-mutant" horiz-adv-x="1115" d="M232.929 722.285c-29.257-78.629-21.943-149.943 23.771-202.971 34.743-38.4 49.371-45.714 76.8-31.086 21.943 12.8 25.6 23.771 10.971 31.086-40.229 25.6-18.286 47.543 47.543 47.543h67.657l-124.343-117.029-126.171-117.029 9.143-85.943c10.971-95.086 34.743-129.829 78.629-111.543 23.771 7.314 25.6 18.286 9.143 47.543-18.286 32.914-14.629 36.571 43.886 36.571 96.914 0 102.4 51.2 5.486 60.343l-76.8 7.314 85.943 1.829c65.829 3.657 93.257 12.8 113.371 43.886 25.6 34.743 25.6 43.886 3.657 65.829-31.086 31.086-73.143 10.971-58.514-25.6 7.314-18.286-5.486-25.6-47.543-25.6h-56.686l111.543 102.4c100.571 89.6 113.371 109.714 113.371 168.229 0 106.057-18.286 149.943-58.514 149.943-27.429 0-34.743-9.143-27.429-36.571 9.143-32.914 0-36.571-71.314-36.571-67.657 0-80.457 5.486-76.8 31.086 9.143 53.029-56.686 51.2-76.8-3.657zM448.701 627.199c-27.429-3.657-76.8-3.657-109.714 0s-10.971 7.314 49.371 7.314c60.343 0 87.771-3.657 60.343-7.314zM545.615 378.513c-60.343-93.257-111.543-175.543-111.543-182.857s107.886-12.8 239.543-12.8c188.343 0 237.714 5.486 230.4 23.771-18.286 49.371-217.6 341.943-230.4 341.943-9.143 0-65.829-76.8-128-170.057zM690.072 383.999c0-49.371-7.314-91.429-18.286-91.429-9.143 0-18.286 42.057-18.286 91.429 0 51.2 9.143 91.429 18.286 91.429 10.971 0 18.286-40.229 18.286-91.429zM690.072 246.856c0-14.629-7.314-27.429-16.457-27.429-23.771 0-40.229 29.257-25.6 43.886 20.114 20.114 42.057 10.971 42.057-16.457z" />
<glyph unicode="&#xe915;" glyph-name="detect-mystic" horiz-adv-x="1150" d="M414.214 655.494c-21.558-39.523-59.284-77.249-80.842-84.435-53.895-16.168-150.905-89.825-174.26-132.94-14.372-26.947-7.186-44.912 28.744-88.028 44.912-53.895 44.912-57.488 17.965-102.4l-30.54-44.912 165.277 5.389c147.312 5.389 167.074 8.982 192.225 44.912 25.151 39.523 25.151 41.319-28.744 30.54-86.232-17.965-168.87 5.389-242.526 66.47-66.47 55.691-68.267 57.488-35.93 93.418 43.116 48.505 163.481 102.4 229.951 102.4 30.54 0 89.825-16.168 132.94-37.726 53.895-23.354 86.232-28.744 98.807-16.168 10.779 10.779-12.575 30.54-73.656 57.488-70.063 32.337-100.604 57.488-125.754 109.586l-34.133 68.267-39.523-71.86zM374.691 492.013c-19.761-19.761-35.93-55.691-35.93-80.842 0-100.604 125.754-152.702 197.614-80.842 43.116 43.116 50.302 88.028 8.982 53.895-14.372-10.779-41.319-16.168-62.877-8.982-46.709 14.372-50.302 105.993-3.593 132.94 25.151 16.168 23.354 17.965-17.965 19.761-28.744 0-66.47-16.168-86.232-35.93zM707.042 456.083c-25.151-39.523-73.656-116.772-107.789-170.667s-62.877-102.4-62.877-107.789c0-5.389 105.993-8.982 235.34-8.982 179.649 0 233.544 5.389 228.154 23.354-12.575 48.505-204.8 335.944-224.561 335.944-12.575 0-43.116-32.337-68.267-71.86zM795.070 414.764c0-16.168-1.796-55.691-3.593-86.232-5.389-84.435-39.523-43.116-39.523 48.505 0 57.488 7.186 79.046 23.354 75.453 10.779-5.389 21.558-21.558 19.761-37.726zM791.477 231.522c0-8.982-8.982-19.761-19.761-23.354s-19.761 7.186-19.761 23.354c0 16.168 8.982 26.947 19.761 23.354s19.761-14.372 19.761-23.354z" />
<glyph unicode="&#xe916;" glyph-name="detect-science" horiz-adv-x="1212" d="M363.653 622.081c8.533-88.747 6.827-95.573-81.92-221.867-81.92-119.467-88.747-134.827-63.147-158.72 30.72-32.427 131.413-56.32 230.4-58.027 66.56 0 73.387 5.12 124.587 87.040l52.907 87.040-49.493 63.147c-87.040 107.52-116.053 204.8-71.68 232.107 10.24 5.12 17.067 22.187 17.067 35.84 0 17.067-22.187 23.893-83.627 23.893h-85.333l10.24-90.453zM437.040 444.588c0-11.947-23.893-47.787-52.907-80.213-37.547-42.667-49.493-69.973-40.96-95.573 11.947-39.253-5.12-44.373-51.2-10.24-32.427 23.893-30.72 29.013 42.667 136.533 69.973 104.107 100.693 117.76 102.4 49.493zM677.68 364.375c-58.027-88.747-104.107-165.547-104.107-170.667s100.693-10.24 223.573-10.24c175.787 0 221.867 5.12 215.040 22.187-18.773 49.493-201.387 319.147-215.040 319.147-8.533 0-61.44-71.68-119.467-160.427zM812.506 371.201c0-46.080-6.827-85.333-17.067-85.333-8.533 0-17.067 39.253-17.067 85.333 0 47.787 8.533 85.333 17.067 85.333 10.24 0 17.067-37.547 17.067-85.333zM812.506 243.201c0-13.653-6.827-25.6-17.067-25.6-8.533 0-17.067 11.947-17.067 25.6s8.533 25.6 17.067 25.6c10.24 0 17.067-11.947 17.067-25.6z" />
<glyph unicode="&#xe917;" glyph-name="detect-skill" horiz-adv-x="1183" d="M354.039 678.401c0-47.669 5.297-54.731 40.607-49.434 28.248 3.531 38.841 17.655 38.841 49.434s-10.593 45.903-38.841 49.434c-35.31 5.297-40.607-1.766-40.607-49.434zM260.466 701.353c-17.655-17.655-14.124-93.572 3.531-93.572 44.138 0 72.386 24.717 72.386 63.559 0 30.014-10.593 42.372-31.779 42.372-17.655 0-38.841-5.297-44.138-12.359zM451.142 657.215c-35.31-120.055-38.841-155.366-19.421-171.255 15.89-12.359 28.248-12.359 44.138 3.531 17.655 15.89 19.421 14.124 10.593-8.828-22.952-58.262 45.903-61.793 91.807-3.531 54.731 68.855 65.324 109.462 38.841 143.007-21.186 22.952-28.248 21.186-65.324-22.952l-42.372-51.2 28.248 56.497c26.483 52.966 26.483 58.262-5.297 75.917-51.2 26.483-67.090 22.952-81.214-21.186zM271.059 590.125c-81.214-33.545-74.152-164.193 12.359-241.876 38.841-33.545 52.966-61.793 52.966-102.4 0-49.434 7.062-58.262 52.966-67.090 74.152-15.89 95.338-3.531 121.821 72.386 14.124 35.31 37.076 81.214 54.731 100.634s35.31 58.262 40.607 88.276l8.828 52.966-31.779-40.607c-38.841-47.669-65.324-47.669-123.586-3.531-24.717 19.421-63.559 35.31-88.276 35.31l-44.138 1.766 40.607 19.421c22.952 12.359 38.841 35.31 38.841 61.793 0 33.545-8.828 40.607-47.669 38.841-28.248 0-67.090-7.062-88.276-15.89zM650.646 399.45c-151.834-234.814-162.428-215.393 109.462-215.393 213.628 0 233.048 1.766 222.455 30.014-17.655 45.903-210.097 340.745-222.455 340.745-5.297 0-54.731-70.621-109.462-155.366zM779.528 445.353c3.531-45.903-5.297-128.883-15.89-146.538-12.359-19.421-38.841 134.179-26.483 155.366 12.359 19.421 40.607 14.124 42.372-8.828zM777.763 245.85c0-14.124-7.062-26.483-17.655-26.483-8.828 0-17.655 12.359-17.655 26.483s8.828 26.483 17.655 26.483c10.593 0 17.655-12.359 17.655-26.483z" />
<glyph unicode="&#xe918;" glyph-name="detect-tech" horiz-adv-x="1154" d="M340.55 734.718c-22.342-11.171-33.513-40.96-33.513-81.92 0-72.611 48.407-111.709 122.88-96.815 24.204 3.724 59.578-3.724 76.335-16.756 18.618-13.033 48.407-26.065 67.025-26.065 16.756 0 31.651-13.033 31.651-27.927 0-20.48-20.48-27.927-76.335-27.927-59.578 0-98.676 16.756-167.564 65.164-50.269 35.375-98.676 65.164-107.985 65.164-14.895 0-113.571-150.807-113.571-173.149 0-5.585 42.822-40.96 93.091-78.196 55.855-40.96 93.091-81.92 93.091-104.262 0-48.407 68.887-113.571 115.433-106.124 24.204 3.724 46.545 29.789 63.302 80.058 13.033 40.96 26.065 80.058 26.065 85.644 0 20.48-93.091 52.131-121.018 42.822-29.789-13.033-176.873 78.196-176.873 107.985 0 40.96 61.44 31.651 137.775-20.48 57.716-40.96 104.262-57.716 156.393-57.716 65.164 0 80.058 7.447 113.571 67.025 22.342 35.375 39.098 85.644 39.098 111.709 0 35.375-9.309 44.684-48.407 44.684-65.164 0-119.156 31.651-119.156 72.611 0 72.611-100.538 117.295-171.287 74.473zM437.365 652.798c0-14.895-13.033-27.927-27.927-27.927s-27.927 13.033-27.927 27.927c0 14.895 13.033 27.927 27.927 27.927s27.927-13.033 27.927-27.927zM467.154 250.646c18.618-31.651-24.204-67.025-50.269-40.96-22.342 22.342-7.447 61.44 20.48 61.44 9.309 0 22.342-9.309 29.789-20.48zM642.165 360.493c-61.44-94.953-111.709-178.735-111.709-186.182s107.985-14.895 242.036-14.895c134.051 0 242.036 3.724 242.036 9.309 0 22.342-229.004 363.055-243.898 363.055-11.171 0-68.887-76.335-128.465-171.287zM791.11 375.387c0-46.545-7.447-87.505-16.756-93.091-16.756-11.171-42.822 135.913-27.927 160.116 24.204 39.098 44.684 7.447 44.684-67.025zM785.525 204.1c-16.756-16.756-52.131 11.171-39.098 33.513 7.447 11.171 18.618 11.171 31.651-1.862 11.171-11.171 14.895-24.204 7.447-31.651z" />
<glyph unicode="&#xe919;" glyph-name="dexterity" horiz-adv-x="1119" d="M775.328 756.776c-29.932-29.932-22.055-70.892 15.754-97.674 29.932-20.48 39.385-22.055 67.742-3.151 39.385 25.206 48.837 66.166 23.631 96.098-23.631 28.357-81.92 29.932-107.126 4.726zM268.054 673.28c0-18.905 22.055-23.631 102.4-23.631s102.4 4.726 102.4 23.631c0 18.905-22.055 23.631-102.4 23.631s-102.4-4.726-102.4-23.631zM512.239 600.813c-31.508-48.837-37.809-69.317-23.631-83.495 14.178-12.603 26.782-6.302 53.563 26.782 22.055 26.782 48.837 42.535 77.194 42.535 23.631 0 42.535-4.726 42.535-9.452s-20.48-39.385-47.262-77.194c-37.809-53.563-47.262-85.071-47.262-148.086v-80.345h-86.646c-75.618 0-86.646-3.151-86.646-31.508s11.028-31.508 118.154-31.508h118.154v126.031l63.015-31.508c61.44-31.508 63.015-34.658 63.015-110.277 0-67.742 4.726-78.769 31.508-78.769 28.357 0 31.508 11.028 31.508 100.825 0 99.249-1.575 102.4-55.138 135.483-59.865 36.234-69.317 63.015-31.508 94.523 15.754 14.178 23.631 14.178 23.631 1.575 0-11.028 37.809-17.329 102.4-17.329 91.372 0 102.4 3.151 102.4 31.508 0 26.782-11.028 31.508-70.892 31.508-70.892 0-70.892 0-70.892 53.563 0 80.345-56.714 119.729-173.292 119.729-88.222 0-91.372-1.575-133.908-64.591zM220.793 570.88c0-28.357 11.028-31.508 102.4-31.508s102.4 3.151 102.4 31.508c0 28.357-11.028 31.508-102.4 31.508s-102.4-3.151-102.4-31.508zM157.777 484.234c0-18.905 22.055-23.631 110.277-23.631s110.277 4.726 110.277 23.631c0 18.905-22.055 23.631-110.277 23.631s-110.277-4.726-110.277-23.631z" />
<glyph unicode="&#xe91a;" glyph-name="double-edge" horiz-adv-x="688" d="M278.171 684.251c-156.526-261.851-160.914-269.166-160.914-345.234 0-138.971 108.251-236.983 248.686-223.817 122.88 11.703 204.8 102.4 204.8 228.206 0 62.903-38.034 143.36-155.063 332.069l-73.143 118.491-64.366-109.714zM292.8 498.468c-16.091-71.68-29.257-165.303-29.257-206.263 0-90.697-29.257-105.326-65.829-33.646-38.034 71.68-27.794 128.731 46.811 257.463 38.034 67.291 71.68 119.954 73.143 117.029 2.926-1.463-8.777-62.903-24.869-134.583z" />
<glyph unicode="&#xe91b;" glyph-name="energy-resistance" horiz-adv-x="1104" d="M472 813.6c-25.6-14.4-102.4-28.8-168-33.6l-120-9.6-4.8-100.8c-9.6-198.4 92.8-401.6 272-544l92.8-72 65.6 44.8c83.2 57.6 216 203.2 254.4 278.4 41.6 83.2 70.4 243.2 57.6 329.6l-11.2 72h-99.2c-54.4 1.6-128 12.8-163.2 25.6-96 36.8-123.2 38.4-176 9.6zM672 674.4c0-3.2-14.4-30.4-32-59.2-43.2-70.4-40-81.6 16-73.6 57.6 8 57.6 6.4 14.4-52.8-17.6-25.6-64-102.4-102.4-169.6l-72-124.8v275.2l-40-8c-40-6.4-40-6.4-17.6 54.4 40 115.2 62.4 148.8 96 155.2 49.6 9.6 137.6 12.8 137.6 3.2z" />
<glyph unicode="&#xe91c;" glyph-name="extended-fury" horiz-adv-x="1209" d="M580.16 770.307c-62.111-47.003-85.613-50.361-157.797-26.859-82.256 30.216-77.22 31.895-77.22-25.18 0-75.541-15.108-100.721-87.292-137.652l-65.469-33.574 36.931-52.039c40.289-55.397 45.325-124.223 15.108-181.298-23.502-43.646-26.859-38.61 63.79-65.469 58.754-16.787 77.22-31.895 100.721-82.256 15.108-33.574 28.538-65.469 31.895-68.826 1.679-3.357 26.859 11.751 53.718 31.895 58.754 40.289 127.58 48.682 182.977 18.466l36.931-20.144v354.203h-104.079l57.075 80.577 57.075 78.898-33.574 52.039c-20.144 30.216-43.646 65.469-52.039 82.256-15.108 26.859-20.144 25.18-58.754-5.036zM486.154 644.406c20.144-21.823 57.075-85.613 78.898-142.689s50.361-104.079 60.433-104.079c11.751 0 21.823-6.715 21.823-16.787 0-8.393-6.715-16.787-16.787-16.787-20.144 0-3.357-48.682 28.538-87.292 25.18-28.538 16.787-63.79-11.751-63.79-10.072 0-26.859 25.18-40.289 57.075-20.144 48.682-30.216 57.075-63.79 48.682-30.216-8.393-35.252-5.036-18.466 11.751 15.108 15.108 1.679 45.325-55.397 129.259-109.115 159.475-97.364 298.807 16.787 184.656zM789.996 646.084c-85.613-130.938-85.613-130.938-43.646-130.938 33.574 0 35.252-8.393 35.252-152.761v-151.082l176.262 10.072 5.036 147.725c3.357 117.508 10.072 146.046 30.216 146.046 15.108 0 23.502 6.715 20.144 13.43-11.751 30.216-139.331 221.587-147.725 221.587-5.036 0-38.61-47.003-75.541-104.079z" />
<glyph unicode="&#xe91d;" glyph-name="greater-vitality" horiz-adv-x="978" d="M198.613 791.117c-56.549-22.925-96.287-103.928-96.287-197.158 0-114.627 67.248-233.839 207.857-366.806 157.421-151.307 157.421-149.779 246.066-79.475 100.872 77.946 227.725 223.14 264.406 299.558 55.021 113.099 30.567 279.69-47.379 334.71-56.549 38.209-181.875 32.096-247.594-12.227l-53.493-36.681-50.436 36.681c-53.493 38.209-155.893 48.907-223.14 21.397zM545.55 607.714v-76.418h152.836v-137.552h-152.836v-137.552h-137.552v136.024l-145.194 9.17v122.269l145.194 9.17v151.307h137.552v-76.418z" />
<glyph unicode="&#xe91e;" glyph-name="lesser-cruelty" horiz-adv-x="1105" d="M304.627 812.090c11.378-37.384 42.26-172.292 43.886-186.921 0-6.502-26.006-16.254-58.514-22.756l-58.514-9.752 87.771-94.273-86.146-52.013-84.521-53.638 63.39-27.632c34.133-16.254 73.143-29.257 84.521-29.257 27.632-1.625 24.381-42.26-13.003-162.54-17.879-56.889-30.883-105.651-27.632-108.902s60.14 30.883 128.406 74.768l125.156 78.019 17.879-50.387 17.879-52.013 24.381 45.511c13.003 24.381 27.632 43.886 32.508 43.886 3.251 0 73.143-32.508 152.787-73.143l144.66-73.143-42.26 110.527c-55.263 144.66-55.263 154.413 1.625 165.79l47.137 8.127-84.521 97.524 134.908 138.159h-94.273c-74.768 0-92.648 4.876-86.146 22.756 4.876 13.003 14.629 50.387 21.13 84.521l11.378 60.14-78.019-42.26c-42.26-24.381-79.644-43.886-81.27-43.886-3.251 0-21.13 40.635-40.635 89.397s-39.010 89.397-42.26 89.397c-4.876 0-29.257-26.006-56.889-56.889l-50.387-56.889-81.27 60.14c-65.016 47.137-79.644 52.013-73.143 27.632zM642.709 573.157c32.508 9.752 34.133 4.876 24.381-35.759-11.378-43.886-11.378-43.886 50.387-34.133l61.765 9.752-39.010-32.508c-29.257-26.006-34.133-39.010-21.13-52.013 29.257-29.257 22.756-45.511-13.003-45.511-27.632 0-30.883-4.876-16.254-30.883 8.127-17.879 22.756-50.387 32.508-74.768l16.254-42.26-71.517 48.762c-53.638 37.384-74.768 43.886-89.397 29.257-16.254-14.629-22.756-13.003-35.759 9.752-16.254 26.006-21.13 24.381-81.27-22.756-69.892-55.263-74.768-52.013-39.010 19.505 29.257 55.263 21.13 79.644-29.257 79.644-34.133 1.625-34.133 3.251 8.127 37.384s43.886 39.010 17.879 65.016c-26.006 26.006-26.006 27.632 8.127 27.632 40.635 0 40.635 0 19.505 55.263-14.629 40.635 3.251 60.14 24.381 26.006 17.879-29.257 40.635-17.879 58.514 29.257l17.879 43.886 30.883-60.14c24.381-47.137 37.384-56.889 65.016-50.387z" />
<glyph unicode="&#xe91f;" glyph-name="lesser-precision" horiz-adv-x="1041" d="M478.533 787.095c0-28.538-15.108-43.646-57.075-58.754-73.862-26.859-154.439-110.793-179.62-182.977-13.43-41.967-26.859-55.397-58.754-55.397s-40.289-8.393-40.289-41.967c0-33.574 8.393-41.967 40.289-41.967s48.682-16.787 77.22-75.541c38.61-80.577 99.043-132.616 172.905-151.082 36.931-10.072 45.325-21.823 45.325-60.433 0-40.289 6.715-48.682 41.967-48.682s41.967 8.393 41.967 47.003c0 38.61 10.072 50.361 57.075 67.148 67.148 25.18 156.118 117.508 171.226 179.62 8.393 31.895 21.823 41.967 58.754 41.967 40.289 0 48.682 6.715 48.682 41.967 0 33.574-8.393 41.967-41.967 41.967-31.895 0-47.003 13.43-67.148 63.79-35.252 82.256-100.721 149.403-171.226 172.905-41.967 13.43-55.397 26.859-55.397 58.754s-8.393 40.289-41.967 40.289c-31.895 0-41.967-8.393-41.967-38.61zM478.533 615.869c0-33.574 8.393-41.967 41.967-41.967s41.967 8.393 41.967 41.967c0 48.682 18.466 52.039 77.22 15.108 36.931-25.18 90.649-102.4 90.649-132.616 0-5.036-18.466-8.393-41.967-8.393-33.574 0-41.967-8.393-41.967-41.967s8.393-41.967 41.967-41.967c41.967 0 41.967-1.679 16.787-48.682-26.859-52.039-85.613-102.4-120.866-102.4-10.072 0-21.823 16.787-25.18 38.61-3.357 23.502-18.466 38.61-41.967 41.967-31.895 5.036-38.61-1.679-38.61-36.931 0-60.433-41.967-55.397-110.793 13.43-67.148 67.148-72.184 94.007-15.108 94.007 33.574 0 41.967 8.393 41.967 41.967s-8.393 41.967-41.967 41.967c-58.754 0-53.718 41.967 15.108 110.793s110.793 73.862 110.793 15.108zM500.356 495.003c-11.751-5.036-21.823-26.859-21.823-50.361 0-33.574 6.715-40.289 38.61-35.252 21.823 3.357 38.61 18.466 41.967 40.289 5.036 36.931-21.823 57.075-58.754 45.325z" />
<glyph unicode="&#xe920;" glyph-name="limber" horiz-adv-x="963" d="M333.249 776.597c-41.266-19.869-90.173-51.964-105.457-70.304l-29.039-32.096 70.304 30.567c175.761 77.946 330.125 44.322 391.26-82.531 38.209-77.946 39.737-103.928 9.17-162.006-38.209-74.89-132.967-102.4-181.875-51.964-22.925 21.397-24.454 19.869-24.454-15.284 0-93.23 122.269-131.439 221.612-70.304 110.042 67.248 131.439 253.707 42.794 363.749-64.191 77.946-126.854 111.57-230.782 119.212-70.304 6.113-102.4 0-163.534-29.039zM301.154 675.725c-206.328-125.325-180.346-434.054 45.851-544.096 97.815-47.379 129.91-42.794 50.436 6.113-198.687 122.269-209.385 388.203-19.869 460.036 81.003 30.567 177.29-30.567 177.29-111.57 0-44.322 0-45.851 30.567-18.34 35.152 32.096 41.266 125.325 12.227 163.534-64.191 77.946-206.328 99.343-296.501 44.322zM829.966 536.644c-1.528-194.101-168.119-343.881-325.54-291.916-68.776 22.925-100.872 61.134-113.099 129.91-7.642 47.379-1.528 59.606 39.737 99.343 38.209 35.152 42.794 45.851 22.925 53.493-79.475 30.567-158.949-44.322-158.949-149.779 0-169.648 195.63-284.275 363.749-213.97 71.833 29.039 152.836 105.457 180.346 172.704 24.454 58.078 29.039 210.913 6.113 246.066-10.699 16.812-15.284 4.585-15.284-45.851z" />
<glyph unicode="&#xe921;" glyph-name="liquid-courage" horiz-adv-x="860" d="M376.751 727.892c-19.115-30.037-34.133-62.805-34.133-75.093 0-10.923-50.517-99.669-110.592-197.973-101.035-161.109-110.592-182.955-103.765-229.376 10.923-66.901 62.805-111.957 129.707-111.957 27.307 0 60.075 8.192 72.363 17.749s69.632 90.112 128.341 178.859c57.344 88.747 128.341 184.32 158.379 214.357 28.672 28.672 53.248 64.171 53.248 79.189 0 16.384-39.595 50.517-121.515 102.4-66.901 42.325-124.245 76.459-129.707 76.459-4.096 0-23.211-24.576-42.325-54.613zM528.303 658.26c77.824-50.517 84.651-58.709 69.632-81.92-9.557-15.019-25.941-28.672-36.864-32.768s-68.267-83.285-128.341-177.493c-58.709-94.208-121.515-181.589-140.629-193.877-31.403-20.48-38.229-20.48-70.997-2.731-66.901 36.864-55.979 83.285 66.901 277.163 60.075 96.939 109.227 184.32 109.227 195.243 0 23.211 24.576 72.363 36.864 72.363 5.461 0 47.787-24.576 94.208-55.979zM282.543 394.751c-88.747-137.899-92.843-151.552-65.536-185.685 39.595-49.152 75.093-24.576 157.013 106.496 40.96 65.536 77.824 126.976 83.285 136.533 6.827 12.288-8.192 16.384-58.709 16.384-68.267 0-69.632 0-116.053-73.728zM632.069 460.287c-35.499-54.613-38.229-91.477-8.192-120.149 31.403-31.403 69.632-27.307 95.573 10.923 19.115 31.403 19.115 38.229-1.365 81.92-36.864 76.459-50.517 80.555-86.016 27.307z" />
<glyph unicode="&#xe922;" glyph-name="mutagenesis" horiz-adv-x="692" d="M210.429 707.606c-31.73-67.786-21.634-145.668 24.518-197.589 36.056-40.383 44.71-44.71 64.901-27.403 21.634 18.749 21.634 21.634 0 46.152-23.076 25.961-21.634 27.403 44.71 27.403h70.67l-111.054-105.285c-103.842-99.515-111.054-111.054-111.054-165.859 0-82.208 25.961-132.687 67.786-132.687 28.845 0 31.73 4.327 18.749 27.403-23.076 43.268-20.192 44.71 72.113 44.71 82.208 0 86.535-1.442 72.113-27.403-20.192-38.941-18.749-44.71 12.98-44.71 33.172 0 44.71 14.423 60.575 83.651 12.98 59.132-8.654 124.034-56.248 167.301-25.961 21.634-34.614 24.518-53.363 8.654-17.307-14.423-18.749-23.076-5.769-37.499 12.98-15.865 7.211-20.192-28.845-20.192-24.518 0-44.71 4.327-43.268 11.538 0 5.769 36.056 38.941 77.882 74.997 93.746 77.882 125.476 135.572 113.938 203.358-14.423 72.113-31.73 99.515-66.344 99.515-21.634 0-27.403-7.211-21.634-28.845 7.211-25.961 0-28.845-72.113-28.845-64.901 0-76.439 2.885-63.459 18.749 18.749 23.076 7.211 38.941-27.403 38.941-12.98 0-31.73-15.865-40.383-36.056zM390.71 618.186c-28.845-2.885-74.997-2.885-100.958 0-24.518 2.885 0 5.769 54.806 5.769 56.248 0 76.439-2.885 46.152-5.769zM431.093 296.564c5.769-8.654-25.961-14.423-86.535-14.423s-92.304 5.769-86.535 14.423c4.327 8.654 43.268 14.423 86.535 14.423s82.208-5.769 86.535-14.423z" />
<glyph unicode="&#xe923;" glyph-name="mystic-dispersion" d="M460.036 687.953c-29.039-62.663-44.322-76.418-108.513-99.343-81.003-29.039-213.97-148.251-213.97-192.573 0-13.755 21.397-51.964 47.379-84.060 48.907-56.549 48.907-58.078 22.925-110.042-13.755-29.039-24.454-56.549-24.454-59.606 0-4.585 148.251-7.642 328.597-7.642h328.597l-30.567 61.134-32.096 62.663 55.021 62.663c29.039 35.152 53.493 67.248 53.493 73.361 0 33.624-122.269 143.666-203.272 181.875-77.946 36.681-102.4 58.078-132.967 114.627-19.869 38.209-41.266 70.304-47.379 70.304-4.585 0-24.454-33.624-42.794-73.361zM664.836 518.305c33.624-15.284 82.531-50.436 106.985-77.946l45.851-48.907-70.304-64.191c-116.155-105.457-252.179-128.382-388.203-64.191-41.266 19.869-96.287 58.078-120.74 84.060l-45.851 47.379 44.322 45.851c100.872 105.457 291.916 140.609 427.94 77.946zM406.543 492.323c-90.173-90.173-30.567-235.367 97.815-235.367 67.248 0 137.552 51.964 137.552 102.4 0 19.869-4.585 21.397-18.34 7.642-29.039-29.039-100.872-22.925-119.212 10.699-25.982 50.436-16.812 88.645 27.51 122.269l41.266 30.567-62.663 1.528c-48.907 0-73.361-9.17-103.928-39.737z" />
<glyph unicode="&#xe924;" glyph-name="parry" horiz-adv-x="1041" d="M467.62 813.114c-58.754-31.895-196.407-57.075-251.803-45.325-40.289 8.393-45.325 3.357-57.075-55.397-16.787-87.292 20.144-266.911 73.862-365.954 47.003-83.934 258.518-295.449 298.807-295.449 13.43 0 78.898 52.039 146.046 115.83 167.869 161.154 218.23 263.554 219.908 453.246l1.679 142.689-104.079 3.357c-60.433 3.357-135.974 18.466-182.977 38.61-88.97 40.289-83.934 40.289-144.367 8.393zM622.059 663.71c117.508-60.433 94.007-276.984-33.574-276.984-40.289 0-83.934 26.859-83.934 52.039 0 5.036 18.466 6.715 41.967 1.679 57.075-10.072 92.328 23.502 92.328 85.613 0 105.757-129.259 166.19-240.052 110.793-35.252-16.787-35.252-15.108 3.357 16.787 47.003 41.967 149.403 47.003 219.908 10.072zM536.446 620.064c65.469-23.502 87.292-88.97 43.646-129.259-16.787-16.787-25.18-18.466-18.466-8.393 21.823 38.61-21.823 88.97-73.862 88.97-119.187 0-156.118-139.331-62.111-246.767 28.538-33.574 41.967-55.397 28.538-47.003-55.397 30.216-100.721 83.934-119.187 137.652-15.108 45.325-11.751 67.148 13.43 117.508 16.787 35.252 48.682 72.184 72.184 83.934 52.039 26.859 50.361 25.18 115.83 3.357zM497.836 499.199c-45.325-33.574-30.216-115.83 28.538-142.689 38.61-18.466 57.075-18.466 97.364-1.679 50.361 20.144 99.043 90.649 99.043 141.010 0 13.43 8.393 25.18 18.466 25.18 26.859 0 5.036-99.043-33.574-151.082-16.787-23.502-57.075-52.039-90.649-65.469-53.718-20.144-67.148-18.466-124.223 8.393-50.361 25.18-67.148 45.325-78.898 94.007-18.466 73.862 6.715 114.151 70.505 114.151 40.289 0 40.289-1.679 13.43-21.823z" />
<glyph unicode="&#xe925;" glyph-name="perfect-block" horiz-adv-x="1008" d="M433.6 797.6c-43.2-19.2-110.4-33.6-168-33.6-52.8-1.6-100.8-8-107.2-17.6-20.8-28.8-14.4-176 12.8-265.6 36.8-120 121.6-243.2 235.2-334.4l96-78.4 57.6 46.4c89.6 70.4 203.2 196.8 238.4 265.6 43.2 86.4 72 236.8 60.8 316.8l-11.2 65.6-99.2 1.6c-62.4 0-124.8 12.8-171.2 32-72 32-72 32-144 1.6zM497.6 658.4c30.4 38.4 32 38.4 32 4.8 0-19.2 4.8-44.8 9.6-59.2 8-22.4 16-20.8 57.6 9.6 48 33.6 48 33.6 30.4 0-30.4-56-22.4-70.4 35.2-59.2l51.2 9.6-43.2-36.8c-41.6-35.2-43.2-40-17.6-65.6s25.6-27.2 0-27.2c-33.6 0-33.6-4.8-1.6-65.6 12.8-27.2 22.4-52.8 19.2-56s-33.6 12.8-65.6 33.6c-68.8 48-91.2 49.6-92.8 12.8-1.6-27.2-3.2-27.2-9.6-1.6-9.6 38.4-20.8 36.8-84.8-11.2-30.4-22.4-56-40-57.6-40-3.2 0 6.4 25.6 19.2 56 32 76.8 28.8 84.8-28.8 91.2l-52.8 4.8 54.4 30.4 54.4 28.8-36.8 28.8-38.4 28.8 46.4-8c41.6-8 43.2-6.4 33.6 32-4.8 22.4-14.4 52.8-20.8 70.4-8 22.4-1.6 20.8 33.6-11.2l43.2-40 30.4 40z" />
<glyph unicode="&#xe926;" glyph-name="petrify" horiz-adv-x="1100" d="M351.313 763.606c-42.794-38.209-70.304-105.457-44.322-105.457 7.642 0 19.869 7.642 24.454 15.284 21.397 33.624 131.439 76.418 200.215 76.418 59.606 0 77.946-7.642 122.269-51.964 48.907-48.907 51.964-58.078 51.964-157.421 0-91.701-4.585-111.57-35.152-139.081-45.851-42.794-79.475-42.794-125.325 4.585l-38.209 36.681v-41.266c0-47.379 22.925-91.701 39.737-76.418 6.113 6.113 24.454 1.528 42.794-10.699 68.776-48.907 162.006-7.642 162.006 70.304 0 15.284 16.812 30.567 38.209 35.152 42.794 10.699 51.964 55.021 16.812 84.060-15.284 12.227-18.34 36.681-13.755 77.946 16.812 126.854-56.549 201.743-197.158 198.687-44.322-1.528-108.513 3.057-143.666 9.17-51.964 7.642-68.776 3.057-100.872-25.982zM394.107 690.245c-13.755-13.755-24.454-33.624-24.454-42.794 0-7.642-22.925-21.397-48.907-29.039-114.627-33.624-149.779-178.818-68.776-285.803 19.869-27.51 41.266-68.776 47.379-91.701 21.397-88.645 114.627-142.137 175.761-103.928 16.812 10.699 7.642 21.397-38.209 44.322-32.096 16.812-79.475 51.964-105.457 79.475-39.737 41.266-45.851 59.606-45.851 129.91 0 96.287 16.812 119.212 136.024 183.403 81.003 42.794 87.116 44.322 126.854 22.925 47.379-25.982 64.191-94.758 33.624-131.439-21.397-25.982-7.642-27.51 36.681-4.585 44.322 24.454 58.078 47.379 39.737 68.776-7.642 10.699-10.699 35.152-6.113 55.021 6.113 24.454 0 48.907-19.869 73.361-29.039 35.152-35.152 36.681-93.23 21.397-35.152-9.17-62.663-12.227-62.663-4.585s-12.227 19.869-29.039 27.51c-21.397 12.227-33.624 9.17-53.493-12.227zM843.444 480.86c0-119.212-35.152-186.46-116.155-221.612-68.776-30.567-145.194-25.982-175.761 10.699-9.17 12.227-25.982 21.397-35.152 21.397-41.266 0-88.645 71.833-82.531 123.797 3.057 44.322 12.227 55.021 56.549 68.776l53.493 16.812-41.266 25.982c-42.794 29.039-71.833 22.925-71.833-15.284 0-12.227-12.227-21.397-27.51-21.397-33.624 0-79.475-45.851-79.475-79.475 0-12.227 15.284-42.794 33.624-65.719 18.34-24.454 33.624-61.134 35.152-82.531 0-32.096 9.17-41.266 45.851-47.379 25.982-4.585 65.719-21.397 90.173-38.209 96.287-64.191 218.555-24.454 268.991 90.173 16.812 35.152 45.851 79.475 67.248 99.343 50.436 47.379 64.191 114.627 33.624 162.006-39.737 59.606-55.021 45.851-55.021-47.379z" />
<glyph unicode="&#xe927;" glyph-name="physical-resistance" horiz-adv-x="1240" d="M525.685 832.45c-34.133-14.372-114.975-32.337-179.649-39.523l-116.772-10.779 1.796-145.516c1.796-114.975 10.779-165.277 46.709-242.526 52.098-113.179 159.888-238.933 264.084-310.793l71.86-50.302 61.081 37.726c95.214 59.284 242.526 226.358 291.032 328.758 35.93 77.249 44.912 123.958 44.912 244.323v147.312h-77.249c-41.319 0-120.365 12.575-174.26 28.744-152.702 43.116-167.074 43.116-233.544 12.575zM592.155 690.527c28.744-44.912 28.744-50.302 0-98.807-26.947-48.505-26.947-55.691 1.796-105.993 16.168-28.744 35.93-53.895 41.319-53.895 26.947 0 30.54 79.046 5.389 102.4-30.54 30.54-30.54 34.133-7.186 77.249 16.168 28.744 25.151 30.54 73.656 14.372 52.098-17.965 55.691-23.354 44.912-88.028-7.186-43.116-3.593-70.063 7.186-70.063 8.982 0 17.965 14.372 17.965 32.337 0 68.267 95.214 105.993 113.179 44.912 3.593-17.965 14.372-44.912 19.761-61.081 8.982-21.558-1.796-35.93-39.523-50.302-64.674-26.947-141.923-105.993-150.905-154.498-3.593-23.354-17.965-34.133-41.319-30.54-19.761 3.593-57.488 7.186-82.639 10.779-73.656 7.186-188.632 105.993-256.898 220.968-7.186 14.372 8.982 32.337 43.116 50.302 44.912 23.354 52.098 35.93 43.116 71.86-26.947 111.382 105.993 181.446 167.074 88.028z" />
<glyph unicode="&#xe928;" glyph-name="pierce" horiz-adv-x="965" d="M411.265 770.041c-35.617-17.809-94.98-31.165-155.826-34.133l-99.432-4.452-4.452-90.528c-8.904-178.087 74.203-344.301 240.417-477.867l87.559-69.751 43.038 31.165c83.107 57.878 189.959 176.603 228.545 250.806 46.006 90.528 71.235 221.125 59.362 301.264l-10.388 60.846-92.012 1.484c-59.362 1.484-118.725 13.357-164.73 34.133-40.070 16.325-72.719 29.681-74.203 29.681 0-1.484-26.713-16.325-57.878-32.649zM501.793 676.545c2.968-16.325 23.745-37.101 47.49-46.006 25.229-8.904 56.394-37.101 69.751-62.33 17.809-29.681 38.586-46.006 60.846-46.006s32.649-8.904 32.649-29.681c0-19.293-10.388-29.681-29.681-29.681-16.325 0-34.133-11.872-40.070-25.229-13.357-38.586-80.139-108.336-103.884-108.336-10.388 0-19.293-16.325-19.293-37.101 0-26.713-7.42-37.101-29.681-37.101-19.293 0-29.681 10.388-29.681 29.681s-17.809 37.101-51.942 50.458c-34.133 14.841-60.846 40.070-77.171 74.203-14.841 32.649-35.617 53.426-51.942 53.426-14.841 0-26.713 10.388-26.713 22.261s13.357 22.261 28.197 22.261c17.809 0 37.101 16.325 48.974 40.070 10.388 23.745 44.522 57.878 75.687 77.171 31.165 20.777 54.91 47.49 54.91 65.299 0 35.617 35.617 25.229 41.554-13.357zM412.749 566.725c-46.006-35.617-53.426-59.362-19.293-59.362 11.872 0 22.261-10.388 22.261-22.261s-10.388-22.261-22.261-22.261c-31.165 0-28.197-19.293 11.872-56.394 40.070-38.586 54.91-41.554 54.91-10.388 0 11.872 13.357 22.261 29.681 22.261 17.809 0 29.681-10.388 29.681-25.229 0-20.777 2.968-20.777 29.681 2.968 31.165 28.197 40.070 66.783 14.841 66.783-20.777 0-17.809 54.91 4.452 65.299 11.872 4.452 5.936 17.809-19.293 40.070l-37.101 31.165-4.452-31.165c-5.936-40.070-44.522-40.070-50.458 0l-4.452 31.165-40.070-32.649zM501.793 482.133c-2.968-14.841-14.841-26.713-26.713-26.713s-23.745 11.872-26.713 26.713c-2.968 17.809 4.452 25.229 26.713 25.229s29.681-7.42 26.713-25.229z" />
<glyph unicode="&#xe929;" glyph-name="pittance" horiz-adv-x="1152" d="M356 819.2c0-12.8-12.8-30.4-28.8-38.4-25.6-12.8-25.6-16 6.4-48l33.6-32 30.4 32c30.4 33.6 30.4 33.6-4.8 72-27.2 27.2-36.8 32-36.8 14.4zM780 782.4l-32-32 33.6-33.6 33.6-32 30.4 32c30.4 33.6 30.4 33.6-1.6 65.6l-32 33.6-32-33.6zM514.4 723.2c-62.4-27.2-84.8-51.2-147.2-156.8-41.6-68.8-75.2-134.4-75.2-144 0-11.2 16-41.6 35.2-67.2 30.4-43.2 32-57.6 19.2-126.4-19.2-88-19.2-88 161.6-134.4 137.6-35.2 153.6-32 283.2 54.4 184 123.2 180.8 118.4 136 259.2-36.8 108.8-46.4 123.2-121.6 174.4-44.8 30.4-81.6 65.6-81.6 80 0 28.8-83.2 97.6-115.2 94.4-11.2-1.6-54.4-16-94.4-33.6zM628 680c0-17.6-6.4-36.8-16-41.6-8-4.8-16-30.4-16-56 0-36.8-11.2-52.8-48-72-25.6-12.8-56-24-67.2-24s-49.6-14.4-83.2-33.6c-57.6-30.4-60.8-30.4-51.2-3.2 33.6 86.4 132.8 214.4 185.6 235.2 76.8 32 96 30.4 96-4.8zM660 464c0-11.2-14.4-33.6-32-49.6s-32-49.6-32-73.6c0-35.2-11.2-51.2-49.6-70.4-25.6-14.4-62.4-40-80-57.6-16-16-41.6-30.4-56-30.4-22.4 0-24 11.2-17.6 59.2 6.4 32 22.4 65.6 38.4 75.2 16 8 68.8 52.8 116.8 99.2 83.2 80 112 92.8 112 48zM245.6 648c-11.2-19.2-30.4-33.6-46.4-35.2-22.4 0-20.8-3.2 6.4-17.6 19.2-8 41.6-32 49.6-51.2l16-33.6 11.2 33.6c4.8 19.2 25.6 41.6 46.4 51.2 27.2 12.8 28.8 17.6 8 17.6-14.4 1.6-36.8 16-51.2 35.2l-22.4 33.6-17.6-33.6z" />
<glyph unicode="&#xe92a;" glyph-name="pure-skill" horiz-adv-x="945" d="M392.943 758.351c-6.302-4.726-11.028-33.083-11.028-63.015 0-47.262 4.726-51.988 45.686-51.988 37.809 0 48.837 9.452 63.015 50.412 14.178 37.809 12.603 53.563-1.575 63.015-25.206 14.178-81.92 15.754-96.098 1.575zM276.364 742.597c-22.055-7.877-26.782-64.591-7.877-94.523 6.302-9.452 29.932-14.178 55.138-9.452 36.234 7.877 42.535 15.754 42.535 61.44s-4.726 53.563-34.658 51.988c-20.48 0-45.686-4.726-55.138-9.452zM503.22 655.951c-45.686-148.086-47.262-165.415-18.905-176.443 14.178-4.726 31.508-6.302 39.385-1.575 6.302 4.726 15.754-7.877 20.48-25.206 15.754-58.289 72.468-29.932 133.908 69.317 53.563 88.222 55.138 91.372 25.206 113.428-47.262 34.658-58.289 29.932-105.551-55.138-61.44-108.702-69.317-99.249-11.028 15.754l47.262 92.948-45.686 25.206c-26.782 12.603-50.412 23.631-53.563 23.631s-17.329-37.809-31.508-81.92zM323.626 616.566c-18.905-3.151-51.988-28.357-74.043-53.563-37.809-44.111-37.809-48.837-17.329-121.305 15.754-48.837 40.96-89.797 80.345-122.88 55.138-45.686 58.289-53.563 47.262-113.428-9.452-63.015-7.877-64.591 42.535-74.043 28.357-6.302 80.345-7.877 113.428-4.726 63.015 4.726 63.015 4.726 67.742 77.194 3.151 56.714 15.754 83.495 50.412 116.578 36.234 34.658 47.262 59.865 47.262 100.825l-1.575 56.714-31.508-42.535c-39.385-53.563-47.262-53.563-124.455-3.151-34.658 23.631-83.495 42.535-108.702 44.111-48.837 1.575-88.222 25.206-44.111 25.206 36.234 0 89.797 56.714 89.797 94.523 0 25.206-9.452 31.508-50.412 29.932-28.357-1.575-67.742-6.302-86.646-9.452z" />
<glyph unicode="&#xe92b;" glyph-name="recoil" horiz-adv-x="964" d="M334.424 693.459c-10.541-42.165-22.588-78.306-28.612-82.824-6.024-3.012-36.141 10.541-66.259 30.118l-54.212 37.647-4.518-72.282c-4.518-60.235-9.035-70.776-37.647-75.294-33.129-4.518-31.624-7.529 21.082-87.341l54.212-81.318 27.106 43.671c34.635 57.224 72.282 76.8 146.071 76.8 124.988 0 204.8-140.047 140.047-248.471-18.071-30.118-31.624-57.224-31.624-61.741 0-3.012 54.212-6.024 120.471-6.024 108.424 0 150.588 15.059 102.4 36.141-12.047 4.518 9.035 33.129 55.718 75.294l75.294 69.271h-236.424l66.259 105.412h-61.741c-34.635 0-61.741 6.024-61.741 12.047 0 7.529 21.082 72.282 45.176 146.071 25.6 73.788 45.176 135.529 45.176 138.541s-51.2-33.129-112.941-78.306l-112.941-82.824-25.6 90.353c-15.059 49.694-31.624 90.353-37.647 90.353-4.518 0-16.565-34.635-27.106-75.294zM677.766 592.565c-15.059-3.012-27.106-12.047-27.106-19.576s-4.518-22.588-9.035-36.141c-18.071-45.176 72.282-27.106 111.435 22.588l36.141 43.671-43.671-1.506c-22.588-1.506-54.212-4.518-67.765-9.035zM287.742 408.847c-57.224-58.729-58.729-120.471-1.506-183.718 87.341-97.882 236.424-39.153 236.424 93.365 0 124.988-144.565 180.706-234.918 90.353zM409.719 377.224c0-22.588 10.541-30.118 37.647-30.118s37.647-7.529 37.647-30.118c0-22.588-10.541-30.118-37.647-30.118s-37.647-7.529-37.647-30.118c0-19.576-10.541-30.118-30.118-30.118s-30.118 10.541-30.118 30.118c0 19.576-10.541 30.118-30.118 30.118s-30.118 10.541-30.118 30.118c0 19.576 10.541 30.118 30.118 30.118s30.118 10.541 30.118 30.118c0 19.576 10.541 30.118 30.118 30.118s30.118-10.541 30.118-30.118z" />
<glyph unicode="&#xe92c;" glyph-name="recovery" d="M710.686 752.907c0-41.266-4.585-45.851-45.851-45.851s-45.851-4.585-45.851-45.851c0-41.266 4.585-45.851 45.851-45.851 42.794 0 45.851-4.585 45.851-53.493s3.057-53.493 45.851-53.493c42.794 0 45.851 4.585 45.851 53.493s3.057 53.493 45.851 53.493c41.266 0 45.851 4.585 45.851 45.851s-4.585 45.851-45.851 45.851c-41.266 0-45.851 4.585-45.851 45.851s-4.585 45.851-45.851 45.851c-41.266 0-45.851-4.585-45.851-45.851zM298.029 607.713v-84.060h-168.119v-183.403h168.119v-168.119h168.119v168.119h183.403v181.875l-175.761 9.17-4.585 81.003-4.585 79.475h-166.591v-84.060zM695.402 286.757c0-27.51-7.642-38.209-30.567-38.209-19.869 0-30.567-10.699-30.567-30.567s10.699-30.567 30.567-30.567c22.925 0 30.567-10.699 30.567-39.737 0-50.436 50.436-45.851 58.078 6.113 3.057 21.397 15.284 33.624 35.152 33.624 18.34 0 29.039 10.699 29.039 30.567s-10.699 30.567-30.567 30.567c-22.925 0-30.567 10.699-30.567 38.209s-7.642 38.209-30.567 38.209c-22.925 0-30.567-10.699-30.567-38.209z" />
<glyph unicode="&#xe92d;" glyph-name="resonate" horiz-adv-x="1055" d="M440.616 783.128c-41.891-20.17-100.848-31.030-158.255-31.030-86.885-1.552-93.091-3.103-102.4-40.339-6.206-20.17-6.206-80.679-1.552-131.879 12.412-141.188 82.23-268.412 215.661-390.982 60.509-55.855 114.812-102.4 121.018-102.4 21.721 0 178.424 134.982 220.315 187.733 94.642 127.224 145.842 294.788 127.224 418.909l-9.309 57.406-88.436 1.552c-49.648 0-116.364 9.309-150.497 21.721-32.582 12.412-71.37 26.376-83.782 31.030s-52.752-6.206-89.988-21.721zM457.683 598.498c-1.552-21.721 4.655-57.406 13.964-82.23 12.412-31.030 10.861-48.097-3.103-65.164-10.861-12.412-13.964-40.339-7.758-66.715 6.206-34.133 3.103-48.097-17.067-55.855-13.964-6.206-27.927-7.758-27.927-6.206-1.552 3.103-13.964 21.721-27.927 43.442-21.721 35.685-21.721 44.994-1.552 82.23 18.618 37.236 18.618 46.545-1.552 76.024s-20.17 37.236 0 77.576c29.479 55.855 77.576 52.752 72.921-3.103zM626.798 584.534c-1.552-27.927 3.103-60.509 12.412-72.921 12.412-13.964 12.412-29.479 0-52.752-10.861-18.618-13.964-51.2-7.758-72.921 6.206-26.376 1.552-44.994-10.861-52.752-31.030-20.17-38.788-17.067-58.958 32.582-13.964 35.685-15.515 57.406-3.103 83.782 12.412 27.927 10.861 44.994-6.206 69.818-20.17 27.927-20.17 37.236 1.552 79.127 34.133 66.715 79.127 57.406 72.921-13.964z" />
<glyph unicode="&#xe92e;" glyph-name="salve" horiz-adv-x="964" d="M621.294 650.541c-63.247-93.365-67.765-102.4-39.153-106.918 27.106-4.518 30.118-16.565 30.118-147.576v-141.553h180.706v143.059c0 134.024 1.506 143.059 30.118 143.059 25.6 0 19.576 15.059-46.682 105.412-42.165 58.729-78.306 105.412-79.812 105.412s-36.141-45.176-75.294-100.894zM193.623 698.729c-45.176-33.129-78.306-100.894-78.306-161.129 1.506-105.412 105.412-257.506 240.941-350.871l60.235-42.165 67.765 55.718c48.188 39.153 67.765 67.765 67.765 93.365v39.153l-63.247-54.212c-34.635-30.118-67.765-54.212-72.282-54.212-30.118 0-141.553 99.388-188.235 168.659-84.329 126.494-67.765 252.988 37.647 275.576 33.129 7.529 60.235 1.506 96.376-19.576 46.682-27.106 54.212-28.612 84.329-7.529 18.071 13.553 51.2 24.094 73.788 27.106 48.188 3.012 76.8 18.071 76.8 40.659 0 9.035-28.612 12.047-78.306 6.024-97.882-10.541-120.471-12.047-215.341 0-55.718 6.024-84.329 1.506-109.929-16.565zM356.259 540.612c0-40.659-4.518-45.176-46.682-45.176s-45.176-3.012-40.659-48.188c3.012-40.659 12.047-51.2 45.176-54.212 31.624-4.518 40.659-13.553 45.176-45.176 3.012-33.129 13.553-42.165 54.212-45.176 45.176-4.518 48.188-1.506 48.188 40.659s4.518 46.682 45.176 46.682c42.165 0 45.176 4.518 45.176 52.706s-3.012 52.706-45.176 52.706c-40.659 0-45.176 4.518-45.176 45.176 0 42.165-4.518 45.176-52.706 45.176s-52.706-3.012-52.706-45.176z" />
<glyph unicode="&#xe92f;" glyph-name="scouter-lens" horiz-adv-x="1119" d="M361.789 763.076c-25.206-31.508-22.055-33.083 59.865-44.111 72.468-9.452 74.043-7.877 50.412 37.809-20.48 36.234-81.92 39.385-110.277 6.302zM650.085 775.679c-11.028-3.151-20.48-18.905-20.48-34.658 0-20.48 12.603-25.206 63.015-20.48 37.809 4.726 63.015 14.178 63.015 26.782 0 31.508-58.289 48.837-105.551 28.357zM312.952 676.429c-15.754-9.452-31.508-47.262-37.809-89.797s-23.631-89.797-39.385-107.126c-31.508-33.083-61.44-141.785-63.015-222.129 0-97.674 129.182-157.538 241.034-111.852 63.015 26.782 96.098 75.618 86.646 129.182-6.302 31.508-1.575 34.658 53.563 33.083 56.714-1.575 59.865-3.151 59.865-51.988 0-72.468 70.892-130.757 160.689-130.757 56.714 0 135.483 48.837 151.237 92.948 20.48 56.714-14.178 212.677-56.714 259.938-17.329 17.329-34.658 64.591-39.385 103.975-11.028 80.345-40.96 110.277-118.154 110.277-69.317 0-113.428-25.206-113.428-63.015 0-23.631-11.028-31.508-39.385-31.508-22.055 0-39.385 9.452-39.385 20.48 0 59.865-137.058 99.249-206.375 58.289zM587.069 399.162c17.329-17.329-7.877-53.563-37.809-53.563-18.905 0-29.932 11.028-29.932 31.508 0 29.932 44.111 44.111 67.742 22.055zM383.845 329.845c22.055-7.877 47.262-29.932 58.289-48.837 15.754-31.508 12.603-40.96-23.631-72.468-47.262-40.96-83.495-45.686-141.785-18.905-69.317 31.508-70.892 105.551-4.726 137.058 44.111 22.055 63.015 22.055 111.852 3.151zM861.186 312.516c26.782-23.631 26.782-83.495 0-107.126-70.892-58.289-200.074-23.631-200.074 53.563 0 72.468 133.908 107.126 200.074 53.563z" />
<glyph unicode="&#xe930;" glyph-name="serum-science" horiz-adv-x="848" d="M320.138 723.017c-4.389-11.703-1.463-29.257 8.777-39.497 8.777-8.777 16.091-42.423 16.091-76.069 0-51.2-16.091-81.92-102.4-204.8-64.366-89.234-102.4-156.526-99.474-174.080 8.777-57.051 103.863-89.234 260.389-89.234 217.966 1.463 304.274 46.811 257.463 134.583-11.703 23.406-57.051 89.234-102.4 149.211-71.68 95.086-81.92 117.029-81.92 177.006 0 36.571 7.314 74.606 16.091 83.383 10.24 10.24 13.166 27.794 8.777 39.497-13.166 33.646-168.229 33.646-181.394 0zM403.521 442.149c0-45.349-10.24-65.829-52.663-106.789-39.497-38.034-51.2-58.514-45.349-89.234 5.851-45.349-7.314-49.737-70.217-26.331-39.497 14.629-39.497 16.091-14.629 55.589 67.291 105.326 156.526 222.354 169.691 222.354 7.314 0 13.166-24.869 13.166-55.589z" />
<glyph unicode="&#xe931;" glyph-name="stand-your-ground" horiz-adv-x="902" d="M398.272 780.42c-24.454-13.755-94.758-27.51-155.893-32.096-106.985-6.113-110.042-7.642-120.74-51.964-15.284-70.304 7.642-209.385 47.379-299.558 39.737-85.588 165.063-229.254 247.594-279.69l50.436-32.096 76.418 56.549c94.758 70.304 172.704 163.534 217.027 261.349 25.982 58.078 33.624 103.928 33.624 204.8l1.528 129.91-106.985 9.17c-58.078 4.585-132.967 19.869-166.591 33.624-70.304 30.567-65.719 30.567-123.797 0z" />
<glyph unicode="&#xe932;" glyph-name="strength" horiz-adv-x="1054" d="M565.586 767.073c-57.878-43.038-97.948-46.006-170.667-16.325-57.878 25.229-66.783 19.293-66.783-43.038 0-60.846-46.006-118.725-111.304-140.986-28.197-8.904-51.942-20.777-51.942-25.229s16.325-26.713 37.101-51.942c43.038-50.458 48.974-124.661 14.841-189.959-22.261-43.038-22.261-44.522 14.841-44.522 20.777 0 59.362-8.904 86.075-19.293 41.554-17.809 56.394-35.617 109.82-140.986 1.484-2.968 31.165 11.872 68.267 32.649 72.719 43.038 118.725 47.49 175.119 17.809 38.586-19.293 40.070-19.293 47.49 38.586 8.904 69.751 35.617 102.4 112.788 138.017l57.878 25.229-46.006 65.299c-41.554 60.846-44.522 69.751-29.681 121.693 7.42 29.681 20.777 66.783 26.713 81.623 8.904 20.777 2.968 25.229-34.133 25.229-74.203 0-118.725 29.681-151.374 97.948-16.325 35.617-31.165 65.299-34.133 65.299-1.484-1.484-26.713-17.809-54.91-37.101zM445.377 664.673c29.681-16.325 57.878-57.878 99.432-148.406 35.617-78.655 65.299-124.661 75.687-120.209 10.388 2.968 22.261 0 26.713-8.904 5.936-7.42-1.484-17.809-14.841-22.261-29.681-11.872-16.325-60.846 28.197-97.948 26.713-22.261 28.197-28.197 8.904-41.554-34.133-22.261-44.522-17.809-60.846 25.229-23.745 63.814-43.038 81.623-68.267 62.33-25.229-22.261-44.522-5.936-22.261 19.293 10.388 14.841-5.936 47.49-65.299 129.113-75.687 103.884-92.012 146.922-71.235 200.348 10.388 28.197 11.872 29.681 63.814 2.968z" />
<glyph unicode="&#xe933;" glyph-name="unfazed" horiz-adv-x="969" d="M450.366 757.931c0-34.133-10.923-45.056-77.824-79.189s-84.651-51.883-118.784-118.784c-34.133-66.901-45.056-77.824-79.189-77.824-31.403 0-38.229-5.461-38.229-32.768s8.192-34.133 43.691-38.229c36.864-4.096 46.421-10.923 57.344-51.883 17.749-60.075 103.765-146.091 161.109-161.109 38.229-9.557 46.421-17.749 49.152-54.613 4.096-35.499 10.923-43.691 38.229-43.691s32.768 6.827 32.768 38.229c0 34.133 10.923 45.056 77.824 79.189s84.651 51.883 118.784 118.784c34.133 66.901 45.056 77.824 79.189 77.824 31.403 0 38.229 5.461 38.229 34.133s-6.827 34.133-40.96 34.133c-34.133 0-43.691 8.192-65.536 58.709-31.403 69.632-87.381 122.88-155.648 152.917-43.691 17.749-51.883 27.307-51.883 61.44s-5.461 40.96-34.133 40.96c-28.672 0-34.133-6.827-34.133-38.229zM541.843 630.955c135.168-50.517 176.128-218.453 76.459-318.123-113.323-113.323-296.277-51.883-326.315 110.592-13.653 69.632 36.864 159.744 107.861 193.877 65.536 32.768 87.381 34.133 141.995 13.653zM449 587.265c-38.229-20.48-58.709-101.035-39.595-152.917 19.115-50.517 17.749-54.613-23.211-73.728l-36.864-16.384 40.96-27.307c53.248-34.133 143.36-34.133 184.32 1.365 28.672 23.211 30.037 28.672 12.288 40.96-10.923 6.827-25.941 15.019-34.133 17.749s-6.827 24.576 2.731 55.979c31.403 102.4-30.037 191.147-106.496 154.283z" />
<glyph unicode="&#xe934;" glyph-name="vitality" horiz-adv-x="962" d="M211.036 781.576c-103.952-44.994-130.327-214.109-57.406-363.055 46.545-93.091 172.218-234.279 271.515-305.648l68.267-49.648 97.745 76.024c107.055 85.333 211.006 207.903 252.897 300.994 34.133 74.473 37.236 190.836 6.206 265.309-43.442 105.503-203.248 127.224-313.406 43.442-32.582-24.824-52.752-31.030-60.509-20.17-15.515 26.376-131.879 76.024-176.873 74.473-21.721 0-60.509-9.309-88.436-21.721z" />
<glyph unicode="&#xe935;" glyph-name="willpower" horiz-adv-x="1154" d="M459.159 747.073c-42.26-21.13-60.14-22.756-84.521-8.127-45.511 29.257-136.533 24.381-165.79-8.127-61.765-69.892-45.511-170.667 48.762-289.321 50.387-63.39 71.517-73.143 58.514-26.006-11.378 47.137 43.886 147.911 91.022 167.416 29.257 11.378 63.39 11.378 108.902 0 86.146-22.756 136.533-9.752 136.533 35.759 0 39.010-56.889 139.784-79.644 139.784-8.127 0-24.381 3.251-37.384 8.127-11.378 3.251-45.511-4.876-76.394-19.505zM672.086 646.298c1.625-40.635 9.752-48.762 56.889-58.514 56.889-9.752 92.648-50.387 110.527-125.156 16.254-61.765 32.508-56.889 89.397 22.756 78.019 107.276 60.14 208.051-37.384 208.051-29.257 0-61.765-8.127-71.517-17.879-13.003-13.003-21.13-13.003-27.632 0-6.502 9.752-35.759 17.879-66.641 17.879-50.387 0-55.263-4.876-53.638-47.137zM386.017 511.39c-34.133-47.137-32.508-141.41 0-191.797 39.010-56.889 139.784-162.54 173.917-180.419 21.13-13.003 43.886-3.251 94.273 37.384 175.543 139.784 198.298 370.59 37.384 370.59-26.006 0-63.39-11.378-82.895-24.381-29.257-21.13-35.759-21.13-53.638 0-32.508 39.010-139.784 30.883-169.041-11.378zM620.074 433.371c0-40.635 6.502-48.762 40.635-48.762 32.508 0 40.635-8.127 40.635-40.635s-8.127-40.635-40.635-40.635c-32.508 0-40.635-8.127-40.635-40.635s-8.127-40.635-40.635-40.635c-32.508 0-40.635 8.127-40.635 40.635s-8.127 40.635-40.635 40.635c-32.508 0-40.635 8.127-40.635 40.635s8.127 40.635 40.635 40.635c34.133 0 40.635 8.127 40.635 48.762s6.502 48.762 40.635 48.762c34.133 0 40.635-8.127 40.635-48.762z" />
<glyph unicode="&#xe936;" glyph-name="wisdom" horiz-adv-x="1142" d="M745.583 762.754c-13.43-3.357-53.718-10.072-87.292-16.787l-63.79-10.072v-275.305c0-300.485-5.036-287.056 99.043-266.911 48.682 10.072 52.039 15.108 52.039 90.649s1.679 80.577 52.039 90.649c67.148 13.43 157.797 107.436 172.905 177.941 13.43 73.862-28.538 159.475-99.043 191.37-53.718 26.859-73.862 28.538-125.902 18.466zM809.373 599.921c26.859-26.859 25.18-38.61-6.715-70.505-40.289-41.967-57.075-31.895-57.075 31.895 0 60.433 25.18 77.22 63.79 38.61zM471.957 725.823c-36.931-5.036-55.397-23.502-73.862-68.826l-26.859-62.111-21.823 52.039c-21.823 50.361-25.18 52.039-102.4 43.646-43.646-3.357-83.934-10.072-87.292-13.43-1.679-1.679 26.859-62.111 65.469-130.938l68.826-127.58-68.826-144.367c-36.931-80.577-65.469-147.725-63.79-149.403 3.357-1.679 40.289 0 83.934 5.036 72.184 6.715 80.577 11.751 102.4 67.148l23.502 60.433 28.538-52.039c25.18-48.682 31.895-52.039 88.97-43.646 35.252 5.036 70.505 15.108 77.22 21.823 8.393 6.715-13.43 67.148-47.003 134.295l-62.111 122.544 53.718 127.58c30.216 70.505 58.754 137.652 62.111 149.403 8.393 20.144-8.393 21.823-100.721 8.393z" />
</font>
</defs>
</svg>
